<svg xmlns="http://www.w3.org/2000/svg" viewBox="0 0 860 370" role="img" aria-label="Real tone probabilities Laya returned for five messages"><style>text{font-family:Helvetica,Arial,sans-serif;fill:#14202B}.m{font-family:Menlo,Consolas,monospace;font-size:11px;fill:#54657A}.t{font-size:13px}</style><rect width="860" height="370" rx="10" fill="#F7F9FB"/><rect x="24" y="22" width="10" height="10" rx="2" fill="#2E8B57"/><text x="40" y="31" class="m">friendly</text><rect x="126" y="22" width="10" height="10" rx="2" fill="#6C7C90"/><text x="142" y="31" class="m">neutral</text><rect x="221" y="22" width="10" height="10" rx="2" fill="#C98A1B"/><text x="237" y="31" class="m">passive-aggressive</text><rect x="393" y="22" width="10" height="10" rx="2" fill="#D2452F"/><text x="409" y="31" class="m">angry</text><rect x="474" y="22" width="10" height="10" rx="2" fill="#6B63C9"/><text x="490" y="31" class="m">anxious</text><text x="640" y="56" class="m">RISK</text><text x="720" y="56" class="m">TIME</text><text x="24" y="56" class="m">MESSAGE</text><text x="400" y="56" class="m">TONE SPLIT (REAL LAYA OUTPUT)</text><text x="24" y="92" class="t">“Thanks so much, you&#x27;re amazing!…”</text><rect x="400.0" y="80" width="97.4" height="16" fill="#2E8B57"/><rect x="497.4" y="80" width="56.1" height="16" fill="#6C7C90"/><rect x="553.6" y="80" width="32.7" height="16" fill="#C98A1B"/><rect x="586.2" y="80" width="13.4" height="16" fill="#D2452F"/><rect x="599.6" y="80" width="10.4" height="16" fill="#6B63C9"/><text x="640" y="93" class="t">0.5%</text><text x="720" y="93" class="t">107 ms</text><line x1="24" y1="114" x2="836" y2="114" stroke="#CBD5DE"/><text x="24" y="144" class="t">“You never listen… idiot.”</text><rect x="400.0" y="132" width="2.3" height="16" fill="#2E8B57"/><rect x="402.3" y="132" width="4.0" height="16" fill="#6C7C90"/><rect x="406.3" y="132" width="8.1" height="16" fill="#C98A1B"/><rect x="414.4" y="132" width="193.6" height="16" fill="#D2452F"/><rect x="608.0" y="132" width="2.0" height="16" fill="#6B63C9"/><text x="640" y="145" class="t">71%</text><text x="720" y="145" class="t">66 ms</text><line x1="24" y1="166" x2="836" y2="166" stroke="#CBD5DE"/><text x="24" y="196" class="t">“Fine. Whatever you want. Not like my opinion m…</text><rect x="400.0" y="184" width="18.2" height="16" fill="#2E8B57"/><rect x="418.2" y="184" width="110.8" height="16" fill="#6C7C90"/><rect x="529.0" y="184" width="49.8" height="16" fill="#C98A1B"/><rect x="578.8" y="184" width="24.9" height="16" fill="#D2452F"/><rect x="603.8" y="184" width="6.2" height="16" fill="#6B63C9"/><text x="640" y="197" class="t">9.6%</text><text x="720" y="197" class="t">71 ms</text><line x1="24" y1="218" x2="836" y2="218" stroke="#CBD5DE"/><text x="24" y="248" class="t">“Hi, could you send the report by Friday? Thank…</text><rect x="400.0" y="236" width="16.7" height="16" fill="#2E8B57"/><rect x="416.7" y="236" width="141.1" height="16" fill="#6C7C90"/><rect x="557.7" y="236" width="34.5" height="16" fill="#C98A1B"/><rect x="592.3" y="236" width="9.0" height="16" fill="#D2452F"/><rect x="601.3" y="236" width="8.7" height="16" fill="#6B63C9"/><text x="640" y="249" class="t">3.6%</text><text x="720" y="249" class="t">69 ms</text><line x1="24" y1="270" x2="836" y2="270" stroke="#CBD5DE"/><text x="24" y="300" class="t">Hebrew: “Hello, I&#x27;d be happy to schedule a meet…</text><rect x="400.0" y="288" width="52.9" height="16" fill="#2E8B57"/><rect x="452.9" y="288" width="145.4" height="16" fill="#6C7C90"/><rect x="598.3" y="288" width="4.6" height="16" fill="#C98A1B"/><rect x="602.9" y="288" width="1.3" height="16" fill="#D2452F"/><rect x="604.2" y="288" width="5.8" height="16" fill="#6B63C9"/><text x="640" y="301" class="t">0%</text><text x="720" y="301" class="t">42 ms</text><line x1="24" y1="322" x2="836" y2="322" stroke="#CBD5DE"/></svg>